<?xml version="1.0" standalone="no"?>
<!DOCTYPE svg PUBLIC "-//W3C//DTD SVG 20010904//EN"
 "http://www.w3.org/TR/2001/REC-SVG-20010904/DTD/svg10.dtd">
<svg version="1.0" xmlns="http://www.w3.org/2000/svg"
 width="900.000000pt" height="580.000000pt" viewBox="0 0 900.000000 580.000000"
 preserveAspectRatio="xMidYMid meet">

<g transform="translate(0.000000,580.000000) scale(0.100000,-0.100000)"
fill="#000000" stroke="none">
<path d="M3871 5369 c-16 -17 -34 -49 -41 -72 -6 -23 -16 -49 -21 -57 -5 -8
-19 -35 -30 -59 -20 -42 -21 -50 -10 -180 6 -75 18 -158 26 -185 8 -27 15 -77
15 -112 0 -62 0 -62 -47 -101 -438 -361 -575 -483 -686 -611 -29 -34 -57 -40
-97 -19 -88 45 -156 62 -260 62 -90 0 -112 -3 -153 -24 -73 -36 -57 -46 74
-47 191 -2 296 -20 341 -61 44 -40 -8 -64 -82 -38 -75 26 -221 55 -280 55 -44
0 -61 -4 -75 -20 -31 -35 -4 -46 148 -64 175 -21 237 -41 250 -80 7 -21 5 -37
-7 -62 l-16 -34 -114 0 c-114 0 -166 -11 -166 -35 0 -24 27 -35 96 -41 38 -3
78 -7 89 -9 11 -1 30 -3 43 -4 35 -2 29 -46 -14 -94 -81 -89 -103 -190 -53
-243 32 -34 45 -17 52 65 7 84 28 128 64 137 44 12 55 -15 52 -136 -1 -58 -8
-122 -15 -142 -7 -20 -39 -69 -72 -110 -143 -177 -481 -703 -508 -791 -3 -12
-10 -26 -14 -32 -8 -11 -28 -71 -35 -104 -5 -25 18 -138 40 -201 20 -56 78
-177 116 -242 16 -27 29 -57 29 -68 0 -11 -27 -39 -67 -71 -87 -67 -203 -180
-203 -196 0 -21 48 8 110 64 77 70 113 94 134 91 30 -5 58 -52 64 -107 l5 -51
-86 -87 c-113 -115 -187 -209 -187 -236 0 -17 33 12 140 121 117 118 145 142
169 142 47 0 61 -22 61 -100 0 -62 -3 -72 -40 -128 -22 -33 -40 -65 -40 -71 0
-25 28 -8 67 44 37 48 48 55 77 55 34 0 46 -13 46 -50 0 -32 51 -174 76 -213
26 -40 98 -97 122 -97 9 0 2 15 -21 43 -66 81 -112 183 -115 259 -2 34 16 40
101 32 54 -5 71 -11 82 -28 9 -14 15 -76 18 -201 7 -225 16 -279 45 -273 15 3
17 28 17 243 l0 240 25 3 c19 2 31 -6 49 -33 33 -49 86 -186 105 -275 24 -106
59 -171 126 -234 75 -69 175 -126 299 -171 217 -78 336 -95 516 -76 166 18
415 70 442 92 6 6 14 22 18 37 9 35 43 72 68 72 12 0 43 -24 72 -55 53 -57 69
-64 99 -42 28 20 13 52 -75 162 -106 132 -114 147 -95 184 8 15 28 36 43 46
15 10 105 97 200 194 l172 175 69 4 70 4 4 50 c9 89 102 187 179 188 47 0 61
-18 70 -90 15 -126 185 -313 369 -405 39 -20 77 -34 84 -32 22 9 82 90 99 135
25 64 22 150 -8 218 -30 67 -76 127 -115 151 -36 21 -54 66 -39 96 6 12 26 38
44 57 45 49 310 379 376 470 81 110 126 188 143 248 18 63 17 245 -2 279 -16
29 -15 88 2 121 32 64 38 249 10 304 -13 25 -17 56 -15 130 1 54 6 110 11 124
6 15 63 77 127 138 64 61 122 125 130 143 7 18 13 68 13 115 0 67 -5 93 -25
136 -35 76 -34 140 4 207 45 79 53 122 41 202 -6 37 -20 85 -31 107 -14 26
-19 55 -18 90 1 28 -3 61 -9 73 -22 41 -14 94 30 183 49 100 59 167 34 250
-18 60 -21 139 -7 188 12 40 14 38 -98 46 -46 4 -87 8 -91 11 -13 8 -216 20
-320 19 -73 -1 -139 -10 -219 -28 -149 -34 -175 -33 -237 6 -104 66 -157 81
-289 81 -90 0 -130 -4 -159 -16 -49 -22 -189 -46 -504 -88 -85 -11 -196 -33
-249 -50 -110 -34 -242 -40 -280 -14 -11 8 -66 74 -121 147 -114 152 -181 224
-240 262 -54 34 -77 33 -111 -5z m87 -78 c2 -12 -7 -54 -19 -94 -27 -88 -29
-169 -4 -217 10 -19 40 -60 67 -91 26 -30 48 -60 48 -66 0 -6 -11 -18 -25 -27
-14 -9 -25 -23 -25 -31 0 -20 6 -19 41 6 16 11 61 31 101 45 125 43 179 66
175 77 -1 5 -24 15 -49 22 -26 6 -63 22 -83 36 -45 30 -89 93 -81 114 5 13 17
5 56 -35 56 -58 130 -95 208 -105 61 -8 69 -28 20 -48 -18 -8 -39 -21 -46 -29
-11 -13 -7 -16 28 -22 31 -5 43 -12 50 -31 8 -22 15 -25 59 -25 39 0 53 4 61
19 14 28 12 63 -5 88 -19 26 -6 38 50 47 203 31 333 52 465 76 505 93 555 92
755 -15 56 -30 113 -55 126 -55 13 0 58 15 99 33 l75 32 287 0 c157 0 289 -3
292 -6 3 -3 -1 -21 -10 -39 -13 -26 -14 -37 -5 -49 31 -43 43 -87 39 -151 -3
-56 -9 -73 -43 -124 -47 -71 -59 -152 -31 -210 9 -20 16 -59 16 -94 0 -43 6
-71 20 -95 42 -72 36 -163 -20 -273 -29 -56 -29 -215 0 -244 17 -17 20 -33 20
-99 0 -134 -42 -198 -172 -260 -97 -46 -111 -77 -116 -257 -4 -118 -2 -145 13
-173 10 -21 19 -68 22 -126 5 -83 4 -96 -15 -122 -35 -49 -47 -115 -31 -171
19 -65 19 -298 0 -332 -8 -14 -34 -42 -58 -63 -24 -22 -55 -60 -69 -85 -23
-41 -73 -120 -161 -252 -12 -19 -80 -92 -149 -162 -115 -116 -128 -132 -134
-172 -9 -62 3 -84 96 -179 99 -100 114 -137 89 -223 -8 -30 -20 -54 -26 -54
-35 0 -215 170 -276 260 -17 25 -50 85 -73 133 -24 48 -52 93 -62 98 -26 14
-109 -5 -163 -37 -22 -13 -60 -47 -85 -77 -65 -77 -133 -131 -222 -177 -60
-32 -85 -51 -109 -88 -57 -84 -170 -221 -199 -242 -65 -46 -60 43 12 250 22
63 47 140 56 172 24 86 20 88 -151 88 l-140 0 21 -23 c22 -23 28 -48 16 -60
-4 -3 -24 12 -45 35 -28 30 -40 37 -44 27 -3 -8 -41 -43 -85 -79 -43 -36 -79
-69 -79 -73 -1 -4 15 -21 34 -38 19 -17 35 -38 35 -46 0 -25 -96 -8 -150 27
-24 16 -47 27 -50 24 -2 -3 68 -76 157 -162 245 -239 549 -579 540 -606 -2 -6
-12 -12 -23 -14 -20 -3 -62 40 -294 298 -138 153 -232 251 -237 247 -2 -3 50
-101 115 -218 159 -286 176 -318 171 -323 -2 -2 -14 -7 -27 -10 -16 -6 -24 -3
-29 10 -8 21 -134 238 -232 398 -168 276 -175 286 -197 286 -12 0 -26 11 -34
25 -17 32 -69 72 -104 81 -43 10 -31 -12 45 -84 111 -104 192 -238 258 -427
18 -49 37 -93 44 -97 7 -4 29 -8 50 -8 45 0 49 -20 13 -69 -136 -184 -548
-201 -824 -33 -163 99 -290 242 -241 273 10 6 34 -11 84 -59 86 -83 95 -91
133 -102 27 -7 39 -3 98 36 70 46 145 74 199 74 17 0 34 3 37 6 3 3 -15 52
-40 110 -49 112 -62 122 -110 88 -20 -14 -23 -23 -21 -72 3 -67 -12 -78 -28
-20 -18 67 -33 80 -98 89 -78 10 -88 23 -86 103 1 53 -3 75 -24 113 -30 57
-32 103 -6 127 23 21 41 14 41 -16 0 -21 1 -21 28 4 15 13 41 30 59 37 23 9
33 20 35 39 3 24 7 26 33 23 78 -11 90 -8 93 24 6 48 20 57 76 53 28 -3 60 -8
71 -13 19 -8 19 -8 3 12 -36 40 -18 53 70 53 57 0 110 -6 337 -35 66 -8 122
-15 124 -15 3 0 -32 27 -77 60 -45 33 -84 60 -87 60 -3 0 -5 -7 -5 -15 0 -31
-32 -26 -181 30 -131 48 -154 54 -161 40 -5 -8 -22 -15 -38 -15 -56 0 -131
-22 -186 -55 -30 -18 -77 -39 -105 -45 -44 -11 -52 -10 -70 6 -18 17 -22 17
-72 1 -30 -9 -75 -20 -101 -23 -43 -6 -47 -9 -44 -33 3 -24 8 -27 61 -32 129
-14 157 -102 50 -155 -30 -15 -60 -18 -148 -18 -121 0 -215 21 -334 75 -35 16
-66 29 -69 29 -2 0 -2 -20 1 -45 6 -41 4 -47 -17 -57 -39 -17 -96 -1 -133 39
-19 19 -54 77 -79 128 -39 80 -45 100 -42 146 2 29 8 54 14 56 22 7 72 -48 95
-102 16 -38 28 -55 41 -55 13 0 18 8 18 28 0 74 52 194 125 287 52 67 89 134
99 181 9 41 10 127 1 153 -11 36 -70 27 -182 -25 -192 -90 -248 -102 -280 -58
-17 23 -23 25 -41 15 -36 -19 -90 -14 -103 10 -24 47 -6 125 62 258 76 148
263 464 447 752 116 181 132 212 133 250 0 24 4 64 7 89 6 41 9 44 37 45 30 0
30 1 33 60 5 131 6 133 96 234 46 51 98 121 117 156 32 60 32 63 19 109 -9 32
-27 60 -56 89 -24 23 -44 48 -44 54 0 7 15 20 33 29 115 60 527 429 587 526
24 40 26 102 4 178 -22 77 -31 335 -14 396 14 50 56 107 74 101 6 -2 12 -13
14 -26z m-780 -1406 c27 -109 20 -135 -39 -135 -24 0 -29 -4 -29 -25 0 -14 -9
-34 -20 -45 -11 -11 -31 -20 -45 -20 -22 0 -25 4 -25 33 0 63 54 188 108 250
14 16 16 16 28 -1 6 -10 17 -35 22 -57z m211 -2781 c43 -17 91 -71 91 -102 0
-33 -25 -45 -85 -40 -42 4 -64 12 -93 35 -37 30 -79 90 -69 99 4 4 35 11 109
23 4 0 25 -6 47 -15z"/>
<path d="M5587 4940 c-65 -41 -143 -61 -264 -67 -116 -6 -123 -13 -68 -62 34
-30 117 -61 162 -61 13 0 40 16 62 35 30 27 58 40 122 56 46 12 92 25 102 31
23 12 22 60 -1 81 -27 25 -61 21 -115 -13z"/>
<path d="M4930 4900 c-41 -15 -110 -40 -152 -55 -60 -21 -78 -32 -78 -46 0
-13 -7 -19 -22 -20 -74 -3 -105 -17 -95 -43 11 -27 57 -38 135 -33 121 9 195
63 123 90 -17 6 -30 16 -28 21 2 5 49 25 105 44 82 27 102 37 102 53 0 23 2
23 -90 -11z"/>
<path d="M6120 4906 c-57 -8 -76 -15 -78 -28 -5 -27 41 -33 104 -13 43 13 72
16 134 10 92 -8 112 -20 159 -94 65 -101 160 -75 106 28 -50 98 -197 132 -425
97z"/>
<path d="M5702 4793 c-103 -57 -230 -193 -277 -295 -28 -62 -48 -192 -37 -252
6 -36 34 -68 46 -55 8 8 26 182 26 250 0 66 14 84 60 74 29 -6 30 -5 30 27 1
69 56 151 103 151 49 0 117 -71 117 -122 0 -12 6 -21 14 -21 11 0 16 15 18 51
5 78 23 83 92 28 90 -70 100 -77 122 -83 30 -9 70 25 58 47 -13 23 -115 109
-195 163 -78 54 -128 64 -177 37z"/>
<path d="M6212 4798 c-8 -8 -8 -17 0 -32 21 -40 88 -114 141 -155 60 -46 109
-54 147 -23 17 14 20 22 12 43 -14 34 -121 132 -174 158 -48 23 -107 28 -126
9z"/>
<path d="M4985 4767 c-21 -16 -15 -61 10 -71 35 -13 221 -18 263 -7 81 22 40
61 -85 80 -96 15 -165 14 -188 -2z"/>
<path d="M4179 4731 c-72 -23 -96 -61 -36 -61 58 0 79 -10 74 -36 -6 -33 7
-47 41 -46 44 1 67 16 86 56 21 44 20 51 -6 76 -17 15 -34 20 -77 19 -31 0
-68 -4 -82 -8z"/>
<path d="M6080 4713 c0 -46 53 -101 139 -142 69 -33 79 -42 112 -96 19 -33 43
-81 52 -106 20 -54 69 -104 91 -96 23 9 40 51 32 81 -4 15 -63 83 -134 154
-129 130 -228 213 -269 226 -20 6 -23 4 -23 -21z"/>
<path d="M4571 4652 c-84 -42 -59 -83 48 -81 92 1 115 9 119 41 6 50 -99 75
-167 40z"/>
<path d="M5064 4630 c-17 -5 -39 -19 -49 -30 -18 -19 -18 -21 1 -41 35 -38 73
-51 137 -47 52 4 64 9 88 36 16 18 29 38 29 45 0 25 -153 53 -206 37z"/>
<path d="M4040 4608 c-45 -23 -77 -68 -64 -89 4 -8 26 -10 63 -6 75 8 106 46
85 101 -8 22 -32 20 -84 -6z"/>
<path d="M6112 4433 c0 -153 -9 -202 -50 -259 -23 -34 -27 -49 -27 -109 0 -61
4 -78 33 -128 30 -54 31 -59 17 -81 -9 -13 -33 -36 -55 -51 -45 -31 -113 -132
-129 -188 -18 -68 19 -126 134 -213 l73 -55 7 -112 c3 -62 9 -120 11 -129 6
-20 38 -23 76 -9 23 8 23 10 17 132 -4 99 -2 127 9 141 8 9 61 43 119 75 164
89 196 132 153 206 -34 60 -40 92 -29 159 6 34 7 79 4 101 -8 43 -52 100 -97
123 -41 21 -107 82 -124 115 -8 16 -14 47 -14 71 l1 43 28 -34 c30 -36 61 -38
61 -4 0 53 -179 343 -211 343 -5 0 -8 -62 -7 -137z"/>
<path d="M5622 4548 c-20 -10 -22 -17 -18 -47 3 -20 8 -66 12 -103 6 -66 6
-68 -23 -92 -29 -25 -30 -27 -25 -101 4 -69 3 -78 -23 -116 -15 -23 -45 -61
-67 -85 l-41 -44 30 0 c16 0 53 7 83 16 29 8 61 13 71 11 10 -3 33 6 51 20
l33 24 5 -68 c4 -51 12 -78 32 -108 15 -22 30 -61 33 -87 7 -44 37 -89 51 -75
4 3 12 64 20 134 7 70 17 160 21 198 l8 70 53 3 c34 2 55 8 58 17 7 18 -14 85
-34 108 -14 16 -13 23 17 80 27 52 33 75 34 132 1 62 -1 70 -24 87 -13 10 -40
21 -59 24 -34 4 -36 3 -59 -46 -42 -92 -97 -90 -127 5 -17 53 -19 55 -53 54
-20 0 -46 -5 -59 -11z"/>
<path d="M4671 4514 c-17 -22 -21 -41 -21 -104 0 -63 4 -82 21 -104 37 -47
117 -28 140 33 6 14 10 57 10 95 -1 88 -15 106 -82 106 -39 0 -51 -4 -68 -26z"/>
<path d="M4487 4523 c-6 -9 9 -135 18 -161 3 -8 16 -12 32 -10 27 3 28 5 31
74 2 49 -1 74 -10 82 -19 15 -65 25 -71 15z"/>
<path d="M4176 4489 c-72 -48 -107 -109 -70 -123 37 -14 76 -6 105 23 23 24
29 38 29 75 0 24 -4 47 -9 50 -4 3 -29 -8 -55 -25z"/>
<path d="M4326 4471 c-10 -11 -22 -50 -28 -89 -10 -61 -9 -74 6 -96 18 -28 61
-35 97 -16 18 10 18 13 4 40 -19 37 -19 84 0 100 18 15 20 51 3 68 -18 18 -63
14 -82 -7z"/>
<path d="M4874 4298 c3 -13 9 -42 12 -65 7 -43 7 -43 50 -43 31 0 51 7 71 24
24 21 26 27 18 52 -13 37 -48 54 -109 54 -45 0 -48 -1 -42 -22z"/>
<path d="M6340 4310 c0 -6 13 -34 29 -63 16 -28 36 -77 45 -107 21 -73 50
-118 81 -126 36 -9 50 9 48 60 -2 58 -31 111 -90 167 -71 68 -113 94 -113 69z"/>
<path d="M3984 4246 c-18 -8 -45 -34 -62 -58 -48 -70 -68 -83 -124 -83 -55 0
-72 -16 -66 -63 4 -32 34 -49 98 -54 44 -3 45 -4 50 -43 8 -59 40 -73 181 -81
125 -7 196 -1 225 20 15 12 16 16 5 30 -7 9 -23 16 -34 16 -11 0 -40 9 -64 21
-36 17 -46 29 -60 70 -10 27 -26 52 -35 55 -11 3 -42 -8 -73 -26 -63 -36 -94
-36 -112 0 -22 44 2 63 98 80 46 8 90 19 97 23 6 5 12 23 12 42 0 59 -64 82
-136 51z"/>
<path d="M4508 4204 c-5 -4 -8 -32 -8 -61 0 -45 4 -58 26 -78 29 -27 81 -45
128 -45 l29 0 -6 66 c-6 86 -30 113 -108 121 -30 3 -57 2 -61 -3z"/>
<path d="M4293 4155 c-3 -9 -3 -34 0 -57 9 -66 49 -94 130 -89 13 1 17 10 17
42 0 48 -24 93 -57 108 -35 16 -83 14 -90 -4z"/>
<path d="M4842 4143 c-34 -7 -47 -38 -33 -84 15 -49 61 -82 115 -83 37 -1 41
1 44 26 5 46 -59 150 -90 147 -7 -1 -23 -4 -36 -6z"/>
<path d="M3467 4010 c-25 -28 -49 -64 -52 -81 -11 -47 7 -59 84 -58 85 1 133
18 145 51 13 37 3 53 -44 67 -32 9 -44 19 -52 42 -5 16 -16 29 -23 29 -7 0
-33 -23 -58 -50z"/>
<path d="M4756 3954 c-10 -26 -7 -69 6 -82 18 -18 52 -14 82 9 30 24 33 49 8
72 -24 22 -88 23 -96 1z"/>
<path d="M4425 3947 c-44 -33 17 -96 114 -118 71 -16 106 27 59 71 -56 53
-135 74 -173 47z"/>
<path d="M3755 3896 c-122 -57 -152 -164 -84 -297 23 -45 105 -139 122 -139 6
0 27 17 47 38 52 55 69 63 100 47 15 -8 32 -21 39 -29 20 -24 43 -19 75 14
l28 31 44 -26 c36 -21 55 -25 102 -23 l57 3 9 47 c12 59 -2 95 -50 128 -47 32
-92 31 -141 -3 -43 -30 -115 -44 -153 -29 l-25 9 38 23 c35 21 67 64 67 90 0
22 -49 60 -78 60 -30 0 -56 -23 -88 -77 -20 -36 -40 -48 -50 -32 -4 6 -1 44 6
84 12 71 10 105 -7 105 -4 0 -30 -11 -58 -24z"/>
<path d="M4970 3885 c0 -37 -28 -62 -57 -51 -25 10 -9 -65 18 -87 33 -27 93
-20 97 11 2 13 10 26 18 29 23 9 173 -71 333 -177 138 -93 181 -112 181 -81 0
9 -133 103 -434 310 -66 44 -127 81 -138 81 -14 0 -18 -8 -18 -35z"/>
<path d="M4344 3798 c-11 -18 -8 -129 5 -161 6 -15 22 -33 37 -39 23 -11 29
-10 45 11 36 44 17 165 -29 190 -27 14 -49 14 -58 -1z"/>
<path d="M4805 3791 c-13 -43 23 -101 63 -101 18 0 10 36 -19 85 -24 40 -35
44 -44 16z"/>
<path d="M3405 3743 c-44 -50 -51 -63 -55 -112 -3 -31 -10 -55 -15 -54 -6 1
-24 7 -41 14 -24 10 -36 9 -60 -2 -28 -14 -29 -16 -32 -99 -3 -102 16 -153 60
-158 18 -2 30 3 37 16 18 33 39 105 46 155 9 57 23 60 64 10 37 -45 39 -72 7
-110 -17 -21 -26 -46 -31 -96 -7 -66 -8 -67 -37 -67 -28 0 -29 -2 -23 -32 7
-35 46 -78 70 -78 25 0 123 40 135 55 8 9 13 49 13 102 0 99 -13 136 -78 213
-45 54 -43 87 10 164 19 28 35 63 35 77 0 25 -27 60 -46 58 -5 0 -31 -25 -59
-56z"/>
<path d="M4544 3726 c-52 -52 -57 -88 -21 -156 38 -71 129 -108 201 -80 23 8
26 15 26 60 0 45 -4 55 -32 81 -18 16 -36 29 -40 29 -13 0 -35 54 -30 74 4 21
-13 36 -42 36 -10 0 -38 -20 -62 -44z"/>
<path d="M5080 3677 c0 -43 94 -117 149 -117 23 0 26 14 15 69 -8 38 -40 57
-112 67 -51 6 -52 6 -52 -19z"/>
<path d="M4970 3660 c-33 -8 -36 -32 -10 -75 41 -67 109 -94 145 -59 18 18 13
47 -14 79 -38 46 -79 65 -121 55z"/>
<path d="M4844 3546 c-14 -35 41 -78 81 -62 12 4 13 11 4 33 -6 15 -16 31 -22
35 -20 13 -57 9 -63 -6z"/>
<path d="M4417 3512 c-9 -10 -21 -42 -28 -71 -22 -104 -61 -115 -250 -72 -74
16 -180 33 -236 37 l-102 7 -30 -31 c-26 -26 -31 -38 -31 -81 0 -92 -51 -180
-170 -296 -108 -105 -180 -209 -180 -259 0 -38 31 -50 114 -42 85 8 104 23
123 97 17 66 42 100 100 137 65 41 155 70 272 86 54 8 112 21 129 30 16 8 59
45 94 81 52 52 70 65 96 65 21 0 36 -7 46 -22 19 -27 21 -111 4 -125 -7 -6
-44 -20 -83 -31 -95 -29 -206 -93 -271 -156 l-53 -51 10 -45 c6 -24 19 -59 31
-78 40 -65 189 -157 272 -168 36 -5 47 -3 65 15 45 45 34 104 -28 136 -16 8
-73 26 -127 40 -106 28 -120 35 -111 59 8 20 44 20 90 1 85 -35 194 -7 272 70
59 60 75 102 75 200 0 80 3 91 35 149 45 81 47 129 7 150 -26 13 -32 13 -58
-3 -16 -10 -44 -35 -63 -54 -19 -20 -38 -34 -43 -31 -15 9 21 62 68 101 44 36
74 83 74 118 0 46 -81 72 -113 37z m-255 -192 c38 -1 35 -115 -4 -179 -49 -79
-204 -86 -243 -10 -19 36 -19 73 0 89 12 10 19 7 39 -15 20 -21 32 -26 63 -23
l38 3 3 70 c3 96 3 96 49 79 21 -7 46 -13 55 -14z"/>
<path d="M5284 3511 c-23 -10 -44 -26 -47 -36 -24 -60 23 -161 89 -192 l36
-18 22 29 c46 62 95 106 115 106 12 0 44 -21 72 -47 51 -48 70 -51 53 -8 -6
17 -48 48 -137 100 -71 41 -136 77 -145 79 -10 3 -35 -3 -58 -13z"/>
<path d="M5013 3363 c-17 -6 -16 -40 1 -46 8 -3 24 -24 36 -45 25 -45 47 -55
82 -38 17 8 24 21 26 49 5 53 -31 87 -90 86 -24 0 -49 -3 -55 -6z"/>
<path d="M4739 3340 c-106 -56 -168 -212 -125 -315 18 -42 46 -58 115 -65 l53
-5 4 -43 c9 -100 68 -150 189 -159 l77 -6 -6 40 c-6 31 -3 43 10 54 25 21 64
109 64 146 0 65 -48 79 -128 39 -92 -46 -165 -43 -178 9 -8 32 8 56 80 125 48
46 56 59 56 89 0 20 -7 47 -16 59 -37 53 -128 67 -195 32z"/>
<path d="M5680 3232 c0 -30 8 -48 36 -80 20 -24 49 -49 65 -58 27 -14 29 -13
29 6 0 28 -42 108 -73 143 -38 39 -57 36 -57 -11z"/>
<path d="M5452 3206 c-13 -23 -31 -36 -51 -41 -17 -4 -45 -21 -62 -38 -30 -30
-31 -32 -27 -112 3 -70 7 -87 30 -117 36 -47 92 -74 124 -59 37 16 34 79 -6
124 -16 19 -30 41 -30 49 0 26 31 58 56 58 20 0 24 -5 24 -32 0 -90 59 -178
117 -178 55 0 69 71 29 155 -33 72 -154 225 -177 225 -4 0 -16 -15 -27 -34z"/>
<path d="M5885 3218 c-40 -23 -57 -116 -30 -168 21 -40 115 -65 154 -41 35 22
15 123 -34 174 -38 39 -64 49 -90 35z"/>
<path d="M5782 2933 c-13 -22 3 -74 29 -95 21 -18 84 -25 92 -10 2 4 -11 33
-30 65 -26 44 -39 57 -58 57 -13 0 -28 -7 -33 -17z"/>
<path d="M6162 2900 c-18 -30 -15 -61 14 -118 20 -41 31 -52 50 -52 20 0 26 7
31 33 4 17 7 38 6 45 0 6 -1 19 -2 27 -1 19 -60 85 -75 85 -6 0 -17 -9 -24
-20z"/>
<path d="M5942 2870 c-10 -27 -8 -34 19 -62 16 -18 37 -53 46 -78 24 -64 42
-90 64 -90 44 0 52 96 15 176 -28 60 -58 84 -102 84 -27 0 -34 -5 -42 -30z"/>
<path d="M3852 2821 c-11 -7 -8 -19 13 -62 42 -83 112 -184 151 -219 37 -32
83 -38 91 -13 3 7 -36 52 -85 100 -67 67 -93 100 -107 138 -23 62 -36 73 -63
56z"/>
<path d="M3741 2806 c-8 -10 -8 -22 1 -46 16 -47 92 -201 140 -285 65 -113 95
-137 118 -95 18 33 -8 102 -90 235 -40 66 -84 139 -97 163 -25 43 -51 54 -72
28z"/>
<path d="M5223 2746 c-55 -18 -100 -47 -144 -93 -56 -59 -69 -84 -69 -130 0
-38 4 -46 33 -64 26 -17 44 -20 103 -16 39 2 76 7 82 11 7 4 12 27 12 51 0 43
1 44 40 55 76 20 103 105 53 159 -35 37 -58 43 -110 27z"/>
<path d="M5610 2695 c-41 -12 -102 -27 -135 -31 -59 -9 -60 -10 -63 -42 -5
-48 26 -127 64 -163 41 -39 109 -50 167 -25 21 8 87 27 147 42 61 14 112 30
115 35 4 5 -3 29 -14 54 -42 96 -110 156 -172 154 -19 -1 -68 -11 -109 -24z"/>
<path d="M4664 2689 c-38 -11 -72 -46 -84 -87 -10 -38 -1 -46 40 -37 23 5 30
3 30 -9 0 -37 108 -64 138 -34 18 18 14 79 -8 115 -15 26 -69 66 -82 62 -2 0
-17 -5 -34 -10z"/>
<path d="M3702 2653 c-13 -24 4 -71 41 -113 34 -40 53 -29 43 23 -7 37 -44 98
-63 104 -6 2 -16 -4 -21 -14z"/>
<path d="M3566 2634 c-19 -49 13 -104 61 -104 29 0 29 2 -2 55 -34 56 -51 71
-59 49z"/>
<path d="M3527 2483 c-28 -27 34 -123 79 -123 46 0 40 44 -14 103 -25 26 -51
34 -65 20z"/>
<path d="M6105 2478 c-70 -40 -58 -137 26 -213 72 -64 109 -41 109 68 0 89
-15 123 -60 141 -47 19 -49 19 -75 4z"/>
<path d="M4365 2461 c-87 -12 -125 -41 -125 -96 0 -66 53 -95 170 -95 128 0
182 38 184 132 1 35 -3 44 -24 55 -26 13 -119 15 -205 4z"/>
<path d="M3705 2403 c-8 -22 67 -96 93 -91 31 6 25 38 -13 74 -40 37 -69 44
-80 17z"/>
<path d="M4724 2390 c-57 -23 -72 -104 -28 -139 21 -17 41 -21 98 -21 96 0
118 15 114 78 -3 39 -7 48 -33 63 -36 20 -122 31 -151 19z"/>
<path d="M5041 2294 c-13 -9 -30 -32 -38 -51 -13 -32 -12 -37 10 -76 30 -51
135 -153 172 -167 33 -12 126 -13 158 -1 26 10 53 46 62 84 6 21 0 28 -49 56
-30 17 -86 58 -123 92 -91 82 -141 99 -192 63z"/>
<path d="M4003 2278 c-42 -14 -43 -38 -2 -72 21 -18 42 -26 69 -26 87 0 115
38 64 85 -29 27 -73 31 -131 13z"/>
<path d="M5749 2247 c-66 -28 -143 -81 -164 -113 -8 -13 -15 -35 -15 -49 0
-21 9 -30 48 -48 42 -20 63 -22 197 -21 147 0 212 10 249 37 16 12 17 17 6 38
-20 37 -68 90 -123 133 -63 51 -117 57 -198 23z"/>
<path d="M3780 2233 c-8 -3 -23 -12 -32 -21 -22 -19 -10 -36 41 -59 62 -27
155 -53 162 -45 4 4 10 21 14 39 6 29 3 34 -26 52 -18 11 -51 23 -73 26 -23 4
-48 8 -56 10 -8 2 -22 1 -30 -2z"/>
<path d="M4209 2181 c-34 -26 -43 -63 -28 -108 14 -43 71 -72 139 -73 86 0
115 52 67 118 -56 75 -130 101 -178 63z"/>
<path d="M4543 2173 c-18 -7 -16 -44 4 -72 l16 -24 19 23 c23 29 23 57 -1 70
-11 5 -21 10 -23 9 -2 0 -9 -3 -15 -6z"/>
<path d="M3383 2084 c-7 -19 14 -35 42 -32 12 2 21 12 23 26 3 19 -1 22 -28
22 -19 0 -33 -6 -37 -16z"/>
<path d="M4690 2050 c-26 -26 -27 -83 -1 -109 30 -30 85 -37 130 -16 l38 17
60 -61 c65 -67 91 -75 158 -47 65 28 72 81 17 136 -57 57 -159 78 -224 44 -30
-16 -31 -15 -60 20 -23 29 -37 36 -64 36 -21 0 -42 -8 -54 -20z"/>
<path d="M3530 2029 c-17 -30 11 -69 50 -69 30 0 51 24 43 48 -4 10 -64 42
-79 42 -2 0 -8 -9 -14 -21z"/>
<path d="M4066 2021 c-11 -17 6 -41 29 -41 26 0 50 24 40 40 -8 12 -62 13 -69
1z"/>
<path d="M4505 1983 c-51 -13 -67 -51 -40 -102 16 -33 33 -41 81 -41 42 0 70
13 84 41 25 46 -63 117 -125 102z"/>
<path d="M3710 1904 c-19 -8 -53 -18 -75 -20 -40 -5 -196 -50 -225 -64 -8 -4
-15 -11 -14 -16 1 -17 35 -15 77 5 23 11 58 20 77 21 81 1 119 6 134 19 9 8
39 16 67 19 56 5 71 19 44 39 -24 17 -41 16 -85 -3z"/>
<path d="M5865 1910 c-11 -5 -88 -36 -171 -69 -83 -32 -249 -100 -368 -151
-214 -91 -217 -93 -211 -119 8 -34 40 -61 74 -61 71 0 157 47 289 158 106 89
161 94 208 21 13 -21 31 -39 40 -39 19 0 127 102 196 183 39 47 46 62 37 73
-13 16 -63 18 -94 4z"/>
<path d="M3265 1800 c-18 -19 -18 -22 -2 -38 22 -22 52 -5 52 29 0 31 -26 36
-50 9z"/>
<path d="M3884 1769 c-16 -17 -49 -40 -74 -51 -49 -21 -90 -55 -90 -73 0 -12
93 -40 165 -50 l40 -5 -52 25 c-29 13 -53 27 -53 31 0 3 12 16 28 27 58 45
121 110 116 118 -11 19 -52 8 -80 -22z"/>
<path d="M3123 1775 c-7 -21 27 -59 40 -46 7 7 7 19 -1 36 -13 28 -30 33 -39
10z"/>
<path d="M4849 1724 c-11 -14 -11 -18 6 -30 22 -16 39 -5 33 22 -4 24 -22 28
-39 8z"/>
<path d="M4971 1716 l-23 -24 21 -21 c27 -27 62 -35 113 -27 54 9 95 31 103
57 4 11 5 22 3 23 -1 2 -46 6 -99 10 -92 6 -96 5 -118 -18z"/>
<path d="M3535 1639 c-43 -5 -85 -11 -93 -14 -8 -3 -20 -1 -27 5 -27 23 -278
-29 -299 -62 -19 -31 3 -31 111 -5 69 17 145 28 208 30 101 4 229 32 219 48
-6 10 -5 10 -119 -2z"/>
<path d="M4933 1408 c-27 -13 -36 -47 -27 -104 5 -36 10 -44 28 -44 50 0 136
88 136 139 0 19 -5 21 -57 20 -32 0 -68 -5 -80 -11z"/>
</g>
</svg>
